<svg width="652" height="606" viewBox="0 0 652 606" fill="none" xmlns="http://www.w3.org/2000/svg">
<path d="M 308.942 96.058 L 308.942 96.058 Q 326.000 79.000 343.058 96.058 L 386.359 139.359 Q 391.608 144.608 399.031 144.608 L 460.268 144.608 Q 484.392 144.608 484.392 168.732 L 484.392 229.969 Q 484.392 237.392 489.641 242.641 L 532.942 285.942 Q 550.000 303.000 532.942 320.058 L 489.641 363.359 Q 484.392 368.608 484.392 376.031 L 484.392 437.268 Q 484.392 461.392 460.268 461.392 L 399.031 461.392 Q 391.608 461.392 386.359 466.641 L 343.058 509.942 Q 326.000 527.000 308.942 509.942 L 265.641 466.641 Q 260.392 461.392 252.969 461.392 L 191.732 461.392 Q 167.608 461.392 167.608 437.268 L 167.608 376.031 Q 167.608 368.608 162.359 363.359 L 119.058 320.058 Q 102.000 303.000 119.058 285.942 L 162.359 242.641 Q 167.608 237.392 167.608 229.969 L 167.608 168.732 Q 167.608 144.608 191.732 144.608 L 252.969 144.608 Q 260.392 144.608 265.641 139.359 Z" fill="#d4af37"/>
</svg>
